<?xml version="1.0" encoding="UTF-8" standalone="no"?>
<svg
   height="48"
   viewBox="0 96 960 960"
   width="48"
   version="1.1"
   id="svg4"
   sodipodi:docname="device_reset_FILL0_wght400_GRAD0_opsz48.svg"
   inkscape:version="1.1.2 (0a00cf5339, 2022-02-04)"
   xmlns:inkscape="http://www.inkscape.org/namespaces/inkscape"
   xmlns:sodipodi="http://sodipodi.sourceforge.net/DTD/sodipodi-0.dtd"
   xmlns="http://www.w3.org/2000/svg"
   xmlns:svg="http://www.w3.org/2000/svg">
  <defs
     id="defs8" />
  <sodipodi:namedview
     id="namedview6"
     pagecolor="#ffffff"
     bordercolor="#666666"
     borderopacity="1.0"
     inkscape:pageshadow="2"
     inkscape:pageopacity="0.0"
     inkscape:pagecheckerboard="0"
     showgrid="false"
     inkscape:zoom="17.291667"
     inkscape:cx="24"
     inkscape:cy="24"
     inkscape:window-width="1920"
     inkscape:window-height="1012"
     inkscape:window-x="1920"
     inkscape:window-y="0"
     inkscape:window-maximized="1"
     inkscape:current-layer="svg4" />
  <path
     d="M 477,936 C 377.66667,936 293.33333,900.83333 224,830.5 154.66667,760.16667 120,675 120,575 h 60 c 0,83.33333 28.66667,154.33333 86,213 57.33333,58.66667 127.66667,88 211,88 84.66667,0 156.33333,-29.66667 215,-89 58.66667,-59.33333 88,-131.33333 88,-216 0,-82.66667 -29.66667,-152.5 -89,-209.5 -59.33333,-57 -130.66667,-85.5 -214,-85.5 -45.33333,0 -87.83333,10.33333 -127.5,31 -39.66667,20.66667 -74.16667,48 -103.5,82 h 105 v 60 H 142 V 241 h 60 v 106 c 34.66667,-40.66667 75.83333,-72.66667 123.5,-96 47.66667,-23.33333 98.16667,-35 151.5,-35 50,0 97,9.33333 141,28 44,18.66667 82.5,44.16667 115.5,76.5 33,32.33333 59,70.16667 78,113.5 19,43.33333 28.5,90 28.5,140 0,50 -9.5,97 -28.5,141 -19,44 -45,82.33333 -78,115 -33,32.66667 -71.5,58.5 -115.5,77.5 -44,19 -91,28.5 -141,28.5 z"
     id="path2"
     sodipodi:nodetypes="ssccssssssscccccccssssssssss" />
</svg>
